<svg width="200" height="200" viewBox="0 0 200 200" xmlns="http://www.w3.org/2000/svg">
<title>ScienceIO | Unlock the power of untapped healthcare data</title>
<path d="M38.0557 85.3418L39.0062 86.3033C41.5307 89.4216 43.1648 94.3992 43.1618 100.005C43.1588 105.519 41.5727 110.418 39.1171 113.545L39.1351 113.563L47.5333 105.073C50.2977 102.277 50.3006 97.7418 47.5363 94.9451L37.8158 85.0992L38.0557 85.3418Z" />
<path d="M18.0718 105.058L26.602 113.694C24.0774 110.578 22.4463 105.601 22.4463 99.9954C22.4493 94.4809 24.0354 89.5822 26.491 86.4549L26.473 86.4367L18.0748 94.9298C15.3104 97.7265 15.3074 102.261 18.0718 105.058Z" />
<path d="M47.2938 105.313L46.3433 106.274C43.2611 108.828 38.3409 110.481 32.8 110.478C27.3492 110.475 22.5069 108.871 19.4187 106.387L19.4007 106.405L27.7929 114.901C30.5573 117.697 35.0398 117.701 37.8042 114.904L47.5307 105.07L47.2938 105.313Z" />
<path d="M27.8041 85.096L19.265 93.7256C22.3472 91.1716 27.2674 89.5215 32.8083 89.5215C38.2592 89.5246 43.1014 91.1292 46.1926 93.6134L46.2106 93.5952L37.8154 85.099C35.051 82.3023 30.5685 82.2993 27.8041 85.096Z" />
<path d="M66.6155 109.552C65.0193 109.552 63.6699 109.294 62.5672 108.778C61.4812 108.262 60.6503 107.555 60.0741 106.656C59.4983 105.74 59.2102 104.708 59.2102 103.559H62.6414C62.6414 104.042 62.773 104.516 63.0364 104.982C63.2995 105.432 63.7191 105.798 64.2953 106.081C64.8877 106.364 65.661 106.506 66.6155 106.506C67.4714 106.506 68.1871 106.381 68.7632 106.131C69.339 105.881 69.767 105.557 70.0467 105.157C70.3265 104.741 70.4663 104.275 70.4663 103.759C70.4663 103.109 70.1949 102.593 69.6517 102.21C69.1086 101.811 68.2693 101.561 67.134 101.461L65.5541 101.336C63.8264 101.187 62.444 100.646 61.4072 99.7132C60.3868 98.7643 59.8766 97.5157 59.8766 95.9674C59.8766 94.802 60.1484 93.8031 60.6912 92.9707C61.2344 92.1216 61.9914 91.4723 62.9622 91.0228C63.9496 90.5567 65.1015 90.3236 66.418 90.3236C67.7841 90.3236 68.9607 90.565 69.9481 91.0478C70.9353 91.5306 71.7006 92.2132 72.2437 93.0955C72.7866 93.9612 73.0583 94.9851 73.0583 96.1671H69.6271C69.6271 95.6677 69.5036 95.2098 69.2568 94.7937C69.0263 94.3608 68.6726 94.0195 68.1954 93.7698C67.7345 93.5034 67.142 93.3702 66.418 93.3702C65.727 93.3702 65.1508 93.4868 64.6903 93.7198C64.2293 93.9529 63.884 94.2692 63.6535 94.6688C63.4231 95.0683 63.3078 95.5012 63.3078 95.9674C63.3078 96.5334 63.5137 97.0329 63.925 97.4657C64.3362 97.8819 64.9863 98.1233 65.8752 98.1899L67.4547 98.3398C68.7386 98.4396 69.8656 98.7143 70.8367 99.1638C71.8075 99.6133 72.5564 100.221 73.083 100.987C73.6261 101.753 73.8975 102.677 73.8975 103.759C73.8975 104.907 73.6012 105.923 73.009 106.805C72.4166 107.671 71.569 108.345 70.4663 108.828C69.3803 109.311 68.0965 109.552 66.6155 109.552Z" />
<path d="M82.039 109.552C80.8707 109.552 79.8586 109.353 79.0031 108.953C78.1638 108.553 77.4562 108.021 76.88 107.355C76.3205 106.689 75.9009 105.94 75.6212 105.107C75.3414 104.275 75.2015 103.426 75.2015 102.56V102.086C75.2015 101.17 75.3414 100.296 75.6212 99.4635C75.9175 98.6145 76.3535 97.8653 76.9293 97.216C77.5054 96.5501 78.2131 96.0256 79.0524 95.6427C79.9079 95.2432 80.8954 95.0434 82.0144 95.0434C83.1829 95.0434 84.228 95.2765 85.1495 95.7426C86.071 96.1921 86.8033 96.8248 87.3462 97.6405C87.906 98.4563 88.2184 99.4052 88.2843 100.487H84.952C84.8697 99.7882 84.5734 99.2055 84.0632 98.7393C83.5696 98.2732 82.8866 98.0401 82.0144 98.0401C81.2574 98.0401 80.6239 98.2232 80.1137 98.5895C79.6202 98.9557 79.2499 99.4635 79.0031 100.113C78.756 100.745 78.6328 101.478 78.6328 102.31C78.6328 103.109 78.748 103.834 78.9784 104.483C79.2252 105.132 79.5955 105.64 80.0891 106.006C80.5993 106.373 81.2494 106.556 82.039 106.556C82.6315 106.556 83.1417 106.447 83.5696 106.231C83.9975 106.015 84.3349 105.715 84.5817 105.332C84.8451 104.949 85.0096 104.516 85.0752 104.033H88.4079C88.3419 105.132 88.0209 106.098 87.4451 106.93C86.8856 107.746 86.1369 108.387 85.1988 108.853C84.2773 109.319 83.2239 109.552 82.039 109.552Z" />
<path d="M91.0578 109.078V95.5179H94.489V109.078H91.0578ZM89.1818 98.115V95.5179H94.489V98.115H89.1818ZM92.3166 93.8946C91.6419 93.8946 91.14 93.7198 90.811 93.3702C90.4983 93.004 90.3418 92.5461 90.3418 91.9968C90.3418 91.4473 90.4983 90.9978 90.811 90.6482C91.14 90.2986 91.6419 90.1238 92.3166 90.1238C92.9913 90.1238 93.4849 90.2986 93.7976 90.6482C94.1103 90.9978 94.2665 91.4473 94.2665 91.9968C94.2665 92.5461 94.1103 93.004 93.7976 93.3702C93.4849 93.7198 92.9913 93.8946 92.3166 93.8946Z" />
<path d="M103.701 109.552C102.549 109.552 101.537 109.353 100.665 108.953C99.809 108.553 99.0933 108.021 98.5171 107.355C97.9576 106.672 97.5297 105.915 97.2336 105.082C96.9539 104.25 96.814 103.401 96.814 102.535V102.061C96.814 101.162 96.9539 100.296 97.2336 99.4635C97.5297 98.6145 97.9576 97.8653 98.5171 97.216C99.0933 96.5501 99.8009 96.0256 100.64 95.6427C101.479 95.2432 102.45 95.0434 103.553 95.0434C105.001 95.0434 106.21 95.368 107.182 96.0173C108.169 96.6499 108.909 97.4907 109.403 98.5395C109.897 99.5717 110.144 100.687 110.144 101.886V103.134H98.2703V101.012H107.996L106.934 102.061C106.934 101.195 106.811 100.454 106.564 99.8381C106.317 99.2221 105.939 98.7476 105.429 98.4147C104.935 98.0817 104.31 97.9152 103.553 97.9152C102.796 97.9152 102.154 98.09 101.627 98.4396C101.101 98.7892 100.698 99.297 100.418 99.963C100.155 100.612 100.023 101.395 100.023 102.31C100.023 103.159 100.155 103.917 100.418 104.583C100.681 105.232 101.084 105.748 101.627 106.131C102.17 106.497 102.862 106.681 103.701 106.681C104.54 106.681 105.223 106.514 105.75 106.181C106.276 105.831 106.614 105.407 106.762 104.907H109.921C109.724 105.84 109.346 106.656 108.786 107.355C108.226 108.054 107.511 108.595 106.638 108.978C105.783 109.361 104.803 109.552 103.701 109.552Z" />
<path d="M112.27 109.078V95.5179H114.985V101.336H114.738C114.738 99.9546 114.919 98.8059 115.281 97.8903C115.643 96.9579 116.178 96.2587 116.885 95.7926C117.609 95.3264 118.506 95.0933 119.576 95.0933H119.724C121.32 95.0933 122.53 95.6178 123.353 96.6666C124.176 97.6988 124.587 99.2471 124.587 101.311V109.078H121.156V101.012C121.156 100.179 120.917 99.5051 120.44 98.989C119.979 98.473 119.337 98.2149 118.515 98.2149C117.675 98.2149 116.992 98.4813 116.466 99.014C115.956 99.5301 115.7 100.229 115.7 101.112V109.078H112.27Z" />
<path d="M133.484 109.552C132.316 109.552 131.304 109.353 130.448 108.953C129.609 108.553 128.901 108.021 128.325 107.355C127.766 106.689 127.346 105.94 127.066 105.107C126.787 104.275 126.647 103.426 126.647 102.56V102.086C126.647 101.17 126.787 100.296 127.066 99.4635C127.362 98.6145 127.799 97.8653 128.374 97.216C128.951 96.5501 129.658 96.0256 130.497 95.6427C131.353 95.2432 132.34 95.0434 133.459 95.0434C134.628 95.0434 135.673 95.2765 136.594 95.7426C137.516 96.1921 138.248 96.8248 138.791 97.6405C139.351 98.4563 139.664 99.4052 139.729 100.487H136.397C136.315 99.7882 136.018 99.2055 135.508 98.7393C135.015 98.2732 134.332 98.0401 133.459 98.0401C132.703 98.0401 132.069 98.2232 131.559 98.5895C131.065 98.9557 130.695 99.4635 130.448 100.113C130.201 100.745 130.078 101.478 130.078 102.31C130.078 103.109 130.193 103.834 130.423 104.483C130.67 105.132 131.04 105.64 131.534 106.006C132.044 106.373 132.694 106.556 133.484 106.556C134.077 106.556 134.587 106.447 135.015 106.231C135.442 106.015 135.78 105.715 136.027 105.332C136.29 104.949 136.454 104.516 136.52 104.033H139.853C139.787 105.132 139.466 106.098 138.89 106.93C138.33 107.746 137.582 108.387 136.644 108.853C135.722 109.319 134.669 109.552 133.484 109.552Z" />
<path d="M147.859 109.552C146.707 109.552 145.695 109.353 144.823 108.953C143.967 108.553 143.252 108.021 142.675 107.355C142.116 106.672 141.688 105.915 141.392 105.082C141.112 104.25 140.972 103.401 140.972 102.535V102.061C140.972 101.162 141.112 100.296 141.392 99.4635C141.688 98.6145 142.116 97.8653 142.675 97.216C143.252 96.5501 143.959 96.0256 144.798 95.6427C145.638 95.2432 146.609 95.0434 147.711 95.0434C149.159 95.0434 150.369 95.368 151.34 96.0173C152.327 96.6499 153.068 97.4907 153.561 98.5395C154.055 99.5717 154.302 100.687 154.302 101.886V103.134H142.429V101.012H152.154L151.093 102.061C151.093 101.195 150.97 100.454 150.723 99.8381C150.476 99.2221 150.097 98.7476 149.587 98.4147C149.094 98.0817 148.468 97.9152 147.711 97.9152C146.954 97.9152 146.312 98.09 145.786 98.4396C145.259 98.7892 144.856 99.297 144.576 99.963C144.313 100.612 144.181 101.395 144.181 102.31C144.181 103.159 144.313 103.917 144.576 104.583C144.839 105.232 145.243 105.748 145.786 106.131C146.329 106.497 147.02 106.681 147.859 106.681C148.699 106.681 149.381 106.514 149.908 106.181C150.435 105.831 150.772 105.407 150.92 104.907H154.08C153.882 105.84 153.504 106.656 152.944 107.355C152.385 108.054 151.669 108.595 150.797 108.978C149.941 109.361 148.962 109.552 147.859 109.552Z" />
<path d="M158.328 106.805V93.1205H161.834V106.805H158.328ZM156.28 109.078V106.306H163.882V109.078H156.28ZM156.28 93.6199V90.848H163.882V93.6199H156.28Z" />
<path d="M175.458 109.552C173.829 109.552 172.413 109.261 171.212 108.678C170.027 108.096 169.04 107.338 168.25 106.406C167.477 105.457 166.892 104.441 166.497 103.359C166.119 102.26 165.93 101.203 165.93 100.188V99.6383C165.93 98.5229 166.127 97.4158 166.522 96.317C166.917 95.2015 167.509 94.1943 168.299 93.2953C169.106 92.3963 170.101 91.6804 171.286 91.1477C172.471 90.5983 173.862 90.3236 175.458 90.3236C177.038 90.3236 178.42 90.5983 179.605 91.1477C180.79 91.6804 181.777 92.3963 182.567 93.2953C183.373 94.1943 183.974 95.2015 184.369 96.317C184.764 97.4158 184.961 98.5229 184.961 99.6383V100.188C184.961 101.203 184.764 102.26 184.369 103.359C183.99 104.441 183.406 105.457 182.616 106.406C181.843 107.338 180.856 108.096 179.654 108.678C178.47 109.261 177.07 109.552 175.458 109.552ZM175.458 106.256C176.379 106.256 177.202 106.09 177.926 105.757C178.667 105.424 179.292 104.966 179.802 104.383C180.329 103.784 180.724 103.109 180.987 102.36C181.267 101.594 181.407 100.787 181.407 99.938C181.407 99.0223 181.267 98.1816 180.987 97.4158C180.724 96.6499 180.329 95.984 179.802 95.418C179.292 94.8519 178.667 94.4107 177.926 94.0944C177.186 93.7781 176.363 93.6199 175.458 93.6199C174.536 93.6199 173.705 93.7781 172.965 94.0944C172.224 94.4107 171.591 94.8519 171.064 95.418C170.554 95.984 170.159 96.6499 169.879 97.4158C169.616 98.1816 169.484 99.0223 169.484 99.938C169.484 100.787 169.616 101.594 169.879 102.36C170.159 103.109 170.554 103.784 171.064 104.383C171.591 104.966 172.224 105.424 172.965 105.757C173.705 106.09 174.536 106.256 175.458 106.256Z" />

</svg>
