<svg width="200" height="200" viewBox="0 0 200 200"  xmlns="http://www.w3.org/2000/svg">
<path d="M94.52 75.45C94.4 76.63 96.52 77.15 96.42 75.45C96.37 74.28 94.48 74.05 94.52 75.45ZM97.21 74.49C97.21 74.49 97.21 74.74 97.21 74.62C97.35 75.17 97.56 75.62 98.21 75.74C98.4487 75.8007 98.7017 75.7643 98.9135 75.6387C99.1254 75.513 99.2787 75.3085 99.34 75.07C99.54 73.93 97.34 73.07 97.23 74.49" />
<path d="M111.34 102.26C111.34 102.26 111.66 104.91 111.75 108.37C111.81 110.37 111.75 112.3 111.68 114.04C111.586 115.935 111.328 117.819 110.91 119.67C109.5 125.57 108.91 127.18 108.91 127.23C108.91 127.28 108.71 128.01 108.24 126.67C108.24 126.67 106.72 123.35 105.38 119.9C104.61 117.9 103.96 116.08 103.43 114.39C102.863 112.626 102.419 110.825 102.1 109C102.088 108.939 102.071 108.879 102.05 108.82C101.974 108.616 101.838 108.441 101.659 108.318C101.48 108.194 101.267 108.129 101.05 108.13V108.13C100.24 108.13 99.9 108.98 99.77 109.31C99.53 109.91 98.62 112.92 97.87 115.49C97.26 117.57 96.22 121.25 96.01 122.49C95.85 123.49 95.55 124.8 95.22 123.86C93.9232 121.316 92.7616 118.706 91.74 116.04C91.0725 114.337 90.4918 112.602 90 110.84C89.5956 109.491 89.3934 108.089 89.4 106.68C89.4095 106.473 89.3484 106.27 89.2266 106.102C89.1048 105.935 88.9296 105.814 88.73 105.76C88.5339 105.724 88.3314 105.75 88.1516 105.837C87.9719 105.923 87.8242 106.064 87.73 106.24C87.73 106.24 87.47 106.77 87.11 107.33C86.75 107.89 86.38 107.72 86.29 107.39C86.084 106.502 85.9238 105.604 85.81 104.7C85.5057 102.282 85.3521 99.8472 85.35 97.41V97.36C85.3429 95.7328 85.5995 94.1151 86.11 92.57C86.6254 90.9564 87.3552 89.4193 88.28 88C89.4913 86.1478 90.9901 84.5005 92.72 83.12C92.7839 83.0673 92.841 83.0068 92.89 82.94L93.01 82.77C93.1799 82.5666 93.3089 82.3323 93.39 82.08C93.4671 81.7464 93.4392 81.3971 93.31 81.08V81.08C93.31 81.08 92.9 80.08 92.56 78.81C92.1616 77.7307 92.0178 76.574 92.14 75.43C92.3331 74.5627 92.7808 73.7729 93.4258 73.1618C94.0708 72.5507 94.8836 72.1461 95.76 72C96.1268 71.9112 96.5026 71.8642 96.88 71.86V71.86C97.6894 71.8498 98.4711 72.1546 99.06 72.71C100.033 73.7666 100.722 75.0537 101.06 76.45C101.098 76.5726 101.161 76.6859 101.245 76.7824C101.33 76.8789 101.433 76.9565 101.55 77.01C102.779 77.5999 103.936 78.3279 105 79.18C106.137 80.04 107.189 81.0079 108.14 82.07C109.294 83.3469 110.282 84.7648 111.08 86.29C111.852 87.8028 112.494 89.3785 113 91C113.608 92.8955 114.102 94.8256 114.48 96.78C114.823 98.4249 115 100.1 115.01 101.78C115.009 102.31 114.938 102.838 114.8 103.35C114.75 103.84 114.19 103.35 113.75 102.75C113.31 102.15 113 101.71 113 101.71C112.921 101.573 112.807 101.459 112.67 101.38C112.533 101.301 112.378 101.26 112.22 101.26C112.124 101.257 112.029 101.274 111.94 101.31C111.743 101.372 111.574 101.501 111.463 101.674C111.351 101.848 111.304 102.055 111.33 102.26M116.47 96.41C115.77 92.5834 114.58 88.8629 112.93 85.34C112.051 83.6594 110.962 82.097 109.69 80.69C108.653 79.5337 107.508 78.4789 106.27 77.54C105.206 76.7217 104.071 75.9989 102.88 75.38C102.435 73.808 101.595 72.3759 100.44 71.22C99.4774 70.3067 98.1968 69.8045 96.87 69.82C96.3311 69.8215 95.7942 69.8853 95.27 70.01C94.0021 70.2808 92.8309 70.8888 91.88 71.77C90.9893 72.6065 90.3753 73.6951 90.12 74.89C89.9289 76.3685 90.0829 77.8711 90.57 79.28C90.86 80.28 91.18 81.21 91.31 81.57C89.4472 83.0813 87.8341 84.8767 86.53 86.89C85.5002 88.4864 84.6928 90.2156 84.13 92.03C83.574 93.7722 83.2972 95.5913 83.31 97.42C83.3108 100.174 83.5046 102.924 83.89 105.65C84.0272 106.644 84.2378 107.627 84.52 108.59C84.6324 108.941 84.7868 109.276 84.98 109.59C85.1108 109.831 85.3024 110.033 85.5357 110.177C85.7691 110.321 86.036 110.401 86.31 110.41C86.8349 110.39 87.3338 110.177 87.71 109.81C88.2364 112.167 88.952 114.478 89.85 116.72C90.8988 119.473 92.0972 122.167 93.44 124.79C93.66 125.2 94.34 126.46 95.56 126.46C96.11 126.46 96.9 126.2 97.47 124.94C97.7622 124.245 97.9638 123.516 98.07 122.77C98.31 121.35 99.83 116.09 100.85 112.77C101.59 115.432 102.472 118.052 103.49 120.62C104.86 124.13 106.15 126.93 106.4 127.43L106.46 127.54C106.667 128.011 106.922 128.46 107.22 128.88C107.412 129.157 107.668 129.383 107.965 129.542C108.262 129.7 108.593 129.785 108.93 129.79C109.311 129.782 109.681 129.659 109.991 129.438C110.301 129.217 110.538 128.907 110.67 128.55C110.771 128.307 110.851 128.056 110.91 127.8C111.03 127.43 111.62 125.56 112.91 120.12C113.717 116.222 114.019 112.236 113.81 108.26C113.81 107.38 113.75 106.48 113.69 105.58C113.992 105.763 114.337 105.863 114.69 105.87C114.982 105.874 115.269 105.798 115.52 105.65C116.52 105.09 116.99 103.84 117.04 101.84C117.039 100.005 116.848 98.1754 116.47 96.38" />
</svg>
