<svg width="200" height="200" viewBox="0 0 200 200" xmlns="http://www.w3.org/2000/svg">
<title>Tari | The protocol for digital assets</title>
<path fill-rule="evenodd" clip-rule="evenodd" d="M115.99 86.2238L107.155 112.322H112.807L114.672 106.288H122.421L124.286 112.322H129.938L121.103 86.2238H115.99ZM118.547 93.6213L120.915 101.4H116.178L118.547 93.6213Z" />
<path fill-rule="evenodd" clip-rule="evenodd" d="M157.393 112.322H162.647V86.2238H157.393V112.322Z" />
<path fill-rule="evenodd" clip-rule="evenodd" d="M138.18 97.4136V91.112H142.647C144.685 91.112 145.762 92.2015 145.762 94.2631C145.762 96.3242 144.685 97.4136 142.647 97.4136H138.18ZM143.496 102.278C148.321 102.025 151.089 99.1035 151.089 94.2631C151.089 89.2291 148.001 86.2238 142.83 86.2238H132.926V112.322H138.18V104.166L145.375 112.322H152.14L143.212 102.292L143.496 102.278Z" />
<path fill-rule="evenodd" clip-rule="evenodd" d="M94.249 112.322H99.5023V91.112H108.321V86.2236H85.4295V91.112H94.249V112.322Z" />
<path fill-rule="evenodd" clip-rule="evenodd" d="M69.3853 92.4987V97.3279L41.0655 90.0426L50.616 83.8258L69.3853 92.4987ZM52.2096 112.739V96.9885L67.3288 100.878L52.2096 112.739ZM48.2594 111.217L37.8652 99.6102V93.2985L48.2594 95.9724V111.217ZM33.9148 89.9836V101.121L50.2166 119.324L73.3357 101.186V89.9724L50.2905 79.3236L33.9148 89.9836Z" />
</svg>
