<svg width="200" height="200" viewBox="0 0 200 200"  xmlns="http://www.w3.org/2000/svg">
<title>Pave | Interim design and recruiting team</title>
<path d="M45 87.6723H50.8263V92.4342C52.8805 88.8114 56.0924 87 60.4622 87C64.085 87 67.0168 88.1578 69.2577 90.4734C71.4986 92.7516 72.619 96.057 72.619 100.389C72.619 103.078 72.0588 105.45 70.9384 107.504C69.8553 109.558 68.3613 111.146 66.4566 112.266C64.5892 113.387 62.4977 113.947 60.1821 113.947C58.0159 113.947 56.1298 113.573 54.5238 112.826C52.9552 112.042 51.7227 110.94 50.8263 109.521L50.8823 127H45V87.6723ZM58.7815 108.849C61.2091 108.849 63.0766 108.083 64.3838 106.552C65.6909 104.983 66.3445 102.985 66.3445 100.557C66.3445 98.0177 65.6909 96.0009 64.3838 94.507C63.1139 92.9757 61.2465 92.2101 58.7815 92.2101C57.437 92.2101 56.1671 92.5462 54.972 93.2185C53.8142 93.8534 52.8805 94.7871 52.1709 96.0196C51.4986 97.2148 51.1625 98.6153 51.1625 100.221V100.613C51.1625 102.219 51.4986 103.657 52.1709 104.927C52.8805 106.16 53.8142 107.131 54.972 107.84C56.1298 108.513 57.3996 108.849 58.7815 108.849Z" />
<path d="M98.7947 87.6723H105.686L111.232 99.2689L113.024 103.919L114.817 99.2689L120.307 87.6723H127.03L113.529 113.387H112.352L98.7947 87.6723Z" />
<path d="M142.396 113.947C139.333 113.947 136.775 113.349 134.721 112.154C132.667 110.922 131.154 109.297 130.183 107.28C129.212 105.226 128.727 102.985 128.727 100.557C128.727 97.831 129.287 95.4407 130.407 93.3865C131.565 91.3324 133.152 89.7638 135.169 88.6807C137.186 87.5602 139.464 87 142.004 87C145.963 87 148.895 88.1018 150.799 90.3053C152.741 92.4715 153.712 95.5341 153.712 99.493C153.712 100.501 153.656 101.547 153.544 102.63H135.057C135.468 104.908 136.271 106.552 137.466 107.56C138.698 108.569 140.398 109.073 142.564 109.073C144.357 109.073 145.832 108.923 146.99 108.625C148.148 108.326 149.212 107.915 150.183 107.392L152.032 111.706C151.098 112.304 149.828 112.826 148.222 113.274C146.616 113.723 144.674 113.947 142.396 113.947ZM147.83 98.4286C147.867 96.113 147.363 94.4883 146.317 93.5546C145.272 92.5836 143.778 92.098 141.836 92.098C137.914 92.098 135.654 94.2082 135.057 98.4286H147.83Z" />
<path d="M102.678 112.714H95.7867L90.2405 101.118L88.4478 96.4678L86.6551 101.118L81.1649 112.714H74.4422L87.9436 87L89.1201 87L102.678 112.714Z" />
</svg>
