<svg width="109" height="40" viewBox="0 0 109 40" fill="none" xmlns="http://www.w3.org/2000/svg">
<path d="M0 0.672269H5.82633V5.43417C7.88049 1.81139 11.0924 0 15.4622 0C19.085 0 22.0168 1.1578 24.2577 3.47339C26.4986 5.75163 27.619 9.05696 27.619 13.3894C27.619 16.0784 27.0588 18.45 25.9384 20.5042C24.8553 22.5584 23.3613 24.1457 21.4566 25.2661C19.5892 26.3866 17.4977 26.9468 15.1821 26.9468C13.0159 26.9468 11.1298 26.5733 9.52381 25.8263C7.95518 25.042 6.72269 23.9402 5.82633 22.521L5.88235 40H0V0.672269ZM13.7815 21.8487C16.2091 21.8487 18.0766 21.0831 19.3838 19.5518C20.6909 17.9832 21.3445 15.9851 21.3445 13.5574C21.3445 11.0177 20.6909 9.00093 19.3838 7.507C18.1139 5.97572 16.2465 5.21008 13.7815 5.21008C12.437 5.21008 11.1671 5.54622 9.97199 6.21849C8.81419 6.85341 7.88049 7.78711 7.17087 9.01961C6.4986 10.2148 6.16246 11.6153 6.16246 13.2213V13.6134C6.16246 15.2194 6.4986 16.6573 7.17087 17.9272C7.88049 19.1597 8.81419 20.1307 9.97199 20.8403C11.1298 21.5126 12.3996 21.8487 13.7815 21.8487Z" fill="#1C3938"/>
<path d="M53.7947 0.672269H60.6855L66.2317 12.2689L68.0244 16.9188L69.8171 12.2689L75.3073 0.672269H82.03L68.5286 26.3866H67.3521L53.7947 0.672269Z" fill="#1C3938"/>
<path d="M97.3959 26.9468C94.3334 26.9468 91.775 26.3492 89.7208 25.1541C87.6667 23.9216 86.1541 22.2969 85.183 20.2801C84.212 18.226 83.7265 15.9851 83.7265 13.5574C83.7265 10.831 84.2867 8.44071 85.4071 6.38655C86.5649 4.3324 88.1522 2.76377 90.169 1.68067C92.1858 0.560224 94.4641 0 97.0038 0C100.963 0 103.895 1.10177 105.799 3.30532C107.741 5.47152 108.712 8.53408 108.712 12.493C108.712 13.5014 108.656 14.5472 108.544 15.6303H90.057C90.4678 17.9085 91.2708 19.5518 92.466 20.5602C93.6984 21.5686 95.3978 22.0728 97.564 22.0728C99.3567 22.0728 100.832 21.9234 101.99 21.6246C103.148 21.3259 104.212 20.915 105.183 20.3922L107.032 24.7059C106.098 25.3035 104.828 25.8263 103.222 26.2745C101.616 26.7227 99.6742 26.9468 97.3959 26.9468ZM102.83 11.4286C102.867 9.11298 102.363 7.48833 101.317 6.55462C100.272 5.58357 98.7778 5.09804 96.8357 5.09804C92.9141 5.09804 90.6545 7.20822 90.057 11.4286H102.83Z" fill="#1C3938"/>
<path d="M57.6775 25.7143H50.7867L45.2405 14.1176L43.4478 9.46779L41.6551 14.1176L36.1649 25.7143H29.4422L42.9436 1.0285e-07L44.1201 0L57.6775 25.7143Z" fill="#1C3938"/>
</svg>
