<svg xmlns="http://www.w3.org/2000/svg" width="38.43" height="63.77">
  <defs>
  </defs>
  <path fill="#fff" d="M13.52 7.45c-.12 1.18 2 1.7 1.9 0-.05-1.17-1.94-1.4-1.9 0M16.21 6.49s0 .25 0 .13c.14.55.35 1 1 1.12a.93.93 0 0 0 1.13-.67c.2-1.14-2-2-2.11-.58"/>
  <path fill="#00fdc7" d="M30.34,34.26s.32,2.65.41,6.11c.06,2,0,3.93-.07,5.67a33,33,0,0,1-.77,5.63c-1.41,5.9-2,7.51-2,7.56s-.2.78-.67-.56c0,0-1.52-3.32-2.86-6.77-.77-2-1.42-3.82-1.95-5.51A40.31,40.31,0,0,1,21.1,41a1.21,1.21,0,0,0-.05-.18,1.06,1.06,0,0,0-1-.69h0c-.81,0-1.15.85-1.28,1.18-.24.6-1.15,3.61-1.9,6.18-.61,2.08-1.65,5.76-1.86,7-.16,1-.46,2.31-.79,1.37a81.14,81.14,0,0,1-3.48-7.82A54.12,54.12,0,0,1,9,42.84a14.26,14.26,0,0,1-.6-4.16.91.91,0,0,0-.67-.92.94.94,0,0,0-1,.48s-.26.53-.62,1.09-.73.39-.82.06a26.6,26.6,0,0,1-.48-2.69,58.8,58.8,0,0,1-.46-7.29v-.05a15.06,15.06,0,0,1,.76-4.79A18.91,18.91,0,0,1,7.28,20a20.83,20.83,0,0,1,4.44-4.88,1,1,0,0,0,.17-.18l.12-.17a2.06,2.06,0,0,0,.38-.69,1.66,1.66,0,0,0-.08-1v0s-.41-1-.75-2.27a7.47,7.47,0,0,1-.42-3.38A4.46,4.46,0,0,1,14.76,4a5,5,0,0,1,1.12-.14h0a3.12,3.12,0,0,1,2.18.85,8.46,8.46,0,0,1,2,3.74.91.91,0,0,0,.49.56A17.93,17.93,0,0,1,24,11.18a22.15,22.15,0,0,1,3.14,2.89,20.38,20.38,0,0,1,2.94,4.22A30,30,0,0,1,32,23a50.06,50.06,0,0,1,1.48,5.78,25.26,25.26,0,0,1,.53,5,6.07,6.07,0,0,1-.21,1.57c-.05.49-.61,0-1.05-.6S32,33.71,32,33.71a.9.9,0,0,0-.78-.45.69.69,0,0,0-.28.05.88.88,0,0,0-.61.95"/>
</svg>
