<?xml version="1.0" encoding="UTF-8"?>
<svg width="241px" height="37px" viewBox="0 0 241 37" version="1.1" xmlns="http://www.w3.org/2000/svg" xmlns:xlink="http://www.w3.org/1999/xlink">
    <!-- Generator: Sketch 64 (93537) - https://sketch.com -->
    <title>tari-aurora-logo</title>
    <desc>Created with Sketch.</desc>
    <g id="Assets" stroke="none" stroke-width="1" fill="none" fill-rule="evenodd">
        <g id="Feature-Graphic" transform="translate(-260.000000, -184.000000)" fill="#FFFFFF" fill-rule="nonzero">
            <g id="tari-aurora-logo" transform="translate(260.000000, 184.000000)">
                <path d="M171.500353,24.2866135 L172.503674,21.7357967 L177.180171,21.7357967 L178.217504,24.2866135 L181.210461,24.2866135 L175.972784,12.2467583 L173.779083,12.2467583 L168.575415,24.2866135 L171.500353,24.2866135 Z M176.278883,19.491078 L173.33694,19.491078 L174.799409,15.74988 L176.278883,19.491078 Z M187.148196,24.5927116 C187.975794,24.5927116 188.707029,24.468005 189.341899,24.2185917 C189.976768,23.9691786 190.506771,23.6234012 190.931908,23.1812596 C191.357044,22.739118 191.677313,22.2176177 191.892716,21.6167586 C192.108118,21.0158996 192.215819,20.3583557 192.215819,19.644127 L192.215819,19.644127 L192.215819,12.2467583 L189.562969,12.2467583 L189.562969,19.5420943 C189.562969,19.9162141 189.50345,20.2619915 189.384412,20.5794265 C189.265374,20.8968614 189.098155,21.1717828 188.882752,21.4041906 C188.66735,21.6365983 188.412268,21.8179897 188.117507,21.9483648 C187.822746,22.0787399 187.499643,22.1439274 187.148196,22.1439274 C186.79675,22.1439274 186.470813,22.0787399 186.170383,21.9483648 C185.869954,21.8179897 185.612038,21.6365983 185.396636,21.4041906 C185.181233,21.1717828 185.014012,20.8968614 184.894975,20.5794265 C184.775937,20.2619915 184.716418,19.9162141 184.716418,19.5420943 L184.716418,19.5420943 L184.716418,12.2467583 L182.063568,12.2467583 L182.063568,19.644127 C182.063568,20.3583557 182.17127,21.0158996 182.386672,21.6167586 C182.602073,22.2176177 182.922343,22.739118 183.347479,23.1812596 C183.772615,23.6234012 184.302619,23.9691786 184.937489,24.2185917 C185.572359,24.468005 186.309261,24.5927116 187.148196,24.5927116 Z M196.963172,24.2866135 L196.963172,19.4740725 L198.272592,19.4740725 L200.789398,24.2866135 L203.969416,24.2866135 L200.908436,19.2019854 C201.758708,19.0432679 202.404914,18.6663139 202.847057,18.0711233 C203.289199,17.4759327 203.510269,16.7532013 203.510269,15.902929 C203.510269,15.2000373 203.388397,14.6133494 203.144651,14.1428654 C202.900907,13.6723814 202.572135,13.2982616 202.158336,13.020506 C201.744537,12.7427504 201.262716,12.5443536 200.712873,12.4253154 C200.163031,12.3062773 199.582011,12.2467583 198.969816,12.2467583 L198.969816,12.2467583 L194.310322,12.2467583 L194.310322,24.2866135 L196.963172,24.2866135 Z M198.527673,17.2293537 L196.963172,17.2293537 L196.963172,14.491477 L198.697728,14.491477 C198.935804,14.491477 199.179548,14.5084825 199.428963,14.5424934 C199.678376,14.5765043 199.899446,14.6416918 200.092175,14.738056 C200.284903,14.8344202 200.44362,14.973298 200.568328,15.1546894 C200.693033,15.3360808 200.755387,15.5798255 200.755387,15.8859236 C200.755387,16.2146955 200.684531,16.4697772 200.542818,16.6511686 C200.401107,16.83256 200.22255,16.9657693 200.007147,17.0507966 C199.791745,17.1358238 199.550834,17.1868401 199.284415,17.2038456 C199.017997,17.220851 198.765749,17.2293537 198.527673,17.2293537 L198.527673,17.2293537 Z M210.825444,24.5927116 C211.766413,24.5927116 212.63369,24.445331 213.427278,24.1505699 C214.220865,23.855809 214.906752,23.433507 215.484937,22.8836643 C216.063122,22.3338216 216.513766,21.667775 216.836869,20.8855245 C217.159972,20.103274 217.321525,19.2303278 217.321525,18.2666859 C217.321525,17.303044 217.159972,16.4300978 216.836869,15.6478473 C216.513766,14.8655968 216.063122,14.1995502 215.484937,13.6497075 C214.906752,13.0998648 214.220865,12.6775629 213.427278,12.3828018 C212.63369,12.0880408 211.766413,11.9406602 210.825444,11.9406602 C209.884477,11.9406602 209.017199,12.0880408 208.223611,12.3828018 C207.430024,12.6775629 206.744137,13.0998648 206.165952,13.6497075 C205.587767,14.1995502 205.137123,14.8655968 204.81402,15.6478473 C204.490916,16.4300978 204.329364,17.303044 204.329364,18.2666859 C204.329364,19.2303278 204.490916,20.103274 204.81402,20.8855245 C205.137123,21.667775 205.587767,22.3338216 206.165952,22.8836643 C206.744137,23.433507 207.430024,23.855809 208.223611,24.1505699 C209.017199,24.445331 209.884477,24.5927116 210.825444,24.5927116 Z M210.825444,22.1439274 C210.258597,22.1439274 209.745598,22.0475632 209.286451,21.8548349 C208.827304,21.6621065 208.433345,21.3928536 208.104573,21.0470762 C207.775802,20.7012988 207.523555,20.2931681 207.34783,19.8226841 C207.172108,19.3522002 207.084246,18.8335341 207.084246,18.2666859 C207.084246,17.7111747 207.172108,17.1953428 207.34783,16.7191904 C207.523555,16.2430379 207.775802,15.832073 208.104573,15.4862956 C208.433345,15.1405182 208.827304,14.8712653 209.286451,14.6785369 C209.745598,14.4858086 210.258597,14.3894444 210.825444,14.3894444 C211.392293,14.3894444 211.905291,14.4858086 212.364437,14.6785369 C212.823584,14.8712653 213.217544,15.1405182 213.546316,15.4862956 C213.875087,15.832073 214.127335,16.2430379 214.303059,16.7191904 C214.478782,17.1953428 214.566643,17.7111747 214.566643,18.2666859 C214.566643,18.8335341 214.478782,19.3522002 214.303059,19.8226841 C214.127335,20.2931681 213.875087,20.7012988 213.546316,21.0470762 C213.217544,21.3928536 212.823584,21.6621065 212.364437,21.8548349 C211.905291,22.0475632 211.392293,22.1439274 210.825444,22.1439274 Z M221.422671,24.2866135 L221.422671,19.4740725 L222.732091,19.4740725 L225.248897,24.2866135 L228.428915,24.2866135 L225.367935,19.2019854 C226.218206,19.0432679 226.864414,18.6663139 227.306556,18.0711233 C227.748697,17.4759327 227.969768,16.7532013 227.969768,15.902929 C227.969768,15.2000373 227.847895,14.6133494 227.604151,14.1428654 C227.360406,13.6723814 227.031633,13.2982616 226.617834,13.020506 C226.204035,12.7427504 225.722215,12.5443536 225.172372,12.4253154 C224.622529,12.3062773 224.041511,12.2467583 223.429314,12.2467583 L223.429314,12.2467583 L218.769822,12.2467583 L218.769822,24.2866135 L221.422671,24.2866135 Z M222.987173,17.2293537 L221.422671,17.2293537 L221.422671,14.491477 L223.157226,14.491477 C223.395303,14.491477 223.639048,14.5084825 223.888461,14.5424934 C224.137874,14.5765043 224.358945,14.6416918 224.551673,14.738056 C224.744402,14.8344202 224.903119,14.973298 225.027826,15.1546894 C225.152532,15.3360808 225.214885,15.5798255 225.214885,15.8859236 C225.214885,16.2146955 225.14403,16.4697772 225.002318,16.6511686 C224.860605,16.83256 224.682048,16.9657693 224.466646,17.0507966 C224.251243,17.1358238 224.010334,17.1868401 223.743915,17.2038456 C223.477496,17.220851 223.225249,17.2293537 222.987173,17.2293537 L222.987173,17.2293537 Z M231.118609,24.2866135 L232.121931,21.7357967 L236.798429,21.7357967 L237.83576,24.2866135 L240.828718,24.2866135 L235.591041,12.2467583 L233.397339,12.2467583 L228.193673,24.2866135 L231.118609,24.2866135 Z M235.897139,19.491078 L232.955197,19.491078 L234.417665,15.74988 L235.897139,19.491078 Z" id="AURORA"></path>
                <g id="Group" transform="translate(48.015289, 0.324615)">
                    <path d="M42.9953446,21.1913196 L46.3030416,10.32966 L49.6110089,21.1913196 L42.9953446,21.1913196 Z M42.7336699,0 L30.3957653,36.4425169 L38.2881747,36.4425169 L40.8924861,28.0170265 L51.7135969,28.0170265 L54.3179083,36.4425169 L62.2103177,36.4425169 L49.8721429,0 L42.7336699,0 Z" id="Fill-1"></path>
                    <polygon id="Fill-2" points="100.487463 36.6102806 107.823003 36.6102806 107.823003 0.167493388 100.487463 0.167493388"></polygon>
                    <path d="M73.65865,15.7928477 L73.65865,6.99349769 L79.8966703,6.99349769 C82.7421116,6.99349769 84.2459298,8.51515727 84.2459298,11.3935782 C84.2459298,14.2717287 82.7421116,15.7928477 79.8966703,15.7928477 L73.65865,15.7928477 Z M81.0817754,22.5847639 C87.8193563,22.2314491 91.6836526,18.1525148 91.6836526,11.3935782 C91.6836526,4.36431647 87.3725091,0.167790744 80.1521275,0.167790744 L66.3228398,0.167790744 L66.3228398,36.6103076 L73.65865,36.6103076 L73.65865,25.2217846 L83.7050094,36.6103076 L93.1523284,36.6103076 L80.6846678,22.605579 L81.0817754,22.5847639 Z" id="Fill-3"></path>
                    <polygon id="Fill-5" points="12.3149269 36.6103887 19.6504669 36.6103887 19.6504669 6.99357878 31.9653939 6.99357878 31.9653939 0.167601517 2.07668175e-13 0.167601517 2.07668175e-13 6.99357878 12.3149269 6.99357878"></polygon>
                </g>
                <path d="M32.872302,12.0332744 L32.872302,16.4439073 L6.62692031,9.79003129 L15.4778248,4.11199349 L32.872302,12.0332744 Z M16.9547398,30.51921 L16.9547398,16.1339517 L30.9664143,19.6861512 L16.9547398,30.51921 Z M13.2938494,29.129096 L3.66106981,18.5283711 L3.66106981,12.7636943 L13.2938494,15.2058535 L13.2938494,29.129096 Z M1.32308997e-13,9.73610293 L1.32308997e-13,19.9078763 L15.107699,36.5333719 L36.5333719,19.9678163 L36.5333719,9.7258477 L15.1762341,1.32308997e-13 L1.32308997e-13,9.73610293 Z" id="Fill-8"></path>
            </g>
        </g>
    </g>
</svg>