<svg xmlns="http://www.w3.org/2000/svg" viewBox="0 0 200 200" width="100%" height="100%" role="img"><title>ScienceIO | Unlock the power of untapped healthcare data</title><path d="m38.056 85.342.95.961c2.525 3.119 4.159 8.096 4.156 13.702-.003 5.514-1.59 10.413-4.045 13.54l.018.018 8.398-8.49c2.765-2.796 2.768-7.331.003-10.128l-9.72-9.846.24.243ZM18.072 105.058l8.53 8.636c-2.525-3.116-4.156-8.093-4.156-13.699.003-5.514 1.59-10.413 4.045-13.54l-.018-.018-8.398 8.493c-2.765 2.796-2.768 7.331-.003 10.128Z"/><path d="m47.294 105.313-.95.961c-3.083 2.554-8.003 4.207-13.544 4.204-5.45-.003-10.293-1.607-13.381-4.091l-.018.018 8.392 8.496a7.022 7.022 0 0 0 10.011.003l9.727-9.834-.237.243ZM27.804 85.096l-8.539 8.63c3.082-2.554 8.002-4.204 13.543-4.204 5.451.003 10.293 1.607 13.385 4.091l.018-.018-8.396-8.496a7.022 7.022 0 0 0-10.01-.003ZM66.615 109.552c-1.596 0-2.945-.258-4.048-.774-1.086-.516-1.917-1.223-2.493-2.122-.576-.916-.864-1.948-.864-3.097h3.431c0 .483.132.957.395 1.423.264.45.683.816 1.26 1.099.592.283 1.365.425 2.32.425.855 0 1.571-.125 2.147-.375.576-.25 1.004-.574 1.284-.974.28-.416.42-.882.42-1.398 0-.65-.272-1.166-.815-1.549-.543-.399-1.383-.649-2.518-.749l-1.58-.125c-1.728-.149-3.11-.69-4.147-1.623-1.02-.949-1.53-2.197-1.53-3.746 0-1.165.271-2.164.814-2.996.543-.85 1.3-1.499 2.271-1.948.988-.466 2.14-.7 3.456-.7 1.366 0 2.543.242 3.53.725.987.483 1.753 1.165 2.296 2.047.543.866.814 1.89.814 3.072h-3.43c0-.5-.124-.957-.371-1.373-.23-.433-.584-.775-1.062-1.024-.46-.267-1.053-.4-1.777-.4-.691 0-1.267.117-1.728.35-.46.233-.806.55-1.036.949-.23.4-.346.832-.346 1.298 0 .566.206 1.066.617 1.499.411.416 1.061.657 1.95.724l1.58.15c1.284.1 2.41.374 3.382.824.97.45 1.72 1.057 2.246 1.823.543.766.814 1.69.814 2.772 0 1.148-.296 2.164-.888 3.046-.592.866-1.44 1.54-2.543 2.023-1.086.483-2.37.724-3.85.724ZM82.039 109.552c-1.168 0-2.18-.199-3.036-.599a6.417 6.417 0 0 1-2.123-1.598 6.854 6.854 0 0 1-1.259-2.248 7.94 7.94 0 0 1-.42-2.547v-.474c0-.916.14-1.79.42-2.623a6.654 6.654 0 0 1 1.308-2.247 6.131 6.131 0 0 1 2.123-1.573c.856-.4 1.843-.6 2.962-.6 1.169 0 2.214.233 3.136.7a5.452 5.452 0 0 1 2.196 1.898c.56.815.872 1.764.938 2.846h-3.332a2.723 2.723 0 0 0-.889-1.748c-.493-.466-1.176-.699-2.049-.699-.757 0-1.39.183-1.9.55-.494.366-.864.873-1.11 1.523-.248.632-.371 1.365-.371 2.197 0 .799.115 1.524.345 2.173.247.649.618 1.157 1.111 1.523.51.367 1.16.55 1.95.55.593 0 1.103-.109 1.53-.325a2.538 2.538 0 0 0 1.013-.899c.263-.383.428-.816.493-1.299h3.333c-.066 1.099-.387 2.065-.963 2.897-.56.816-1.308 1.457-2.246 1.923-.922.466-1.975.699-3.16.699ZM91.058 109.078v-13.56h3.431v13.56h-3.431Zm-1.876-10.963v-2.597h5.307v2.597h-5.307Zm3.135-4.22c-.675 0-1.177-.175-1.506-.525-.313-.366-.47-.824-.47-1.373 0-.55.157-1 .47-1.349.329-.35.83-.524 1.506-.524.674 0 1.168.175 1.48.524.313.35.47.8.47 1.349 0 .55-.157 1.007-.47 1.373-.312.35-.806.525-1.48.525ZM103.701 109.552c-1.152 0-2.164-.199-3.036-.599a6.35 6.35 0 0 1-2.148-1.598 7.55 7.55 0 0 1-1.283-2.273 7.943 7.943 0 0 1-.42-2.547v-.474c0-.899.14-1.765.42-2.598a6.873 6.873 0 0 1 1.283-2.247 6.133 6.133 0 0 1 2.123-1.573c.839-.4 1.81-.6 2.913-.6 1.448 0 2.657.325 3.629.974a5.957 5.957 0 0 1 2.221 2.523 7.65 7.65 0 0 1 .741 3.346v1.248H98.27v-2.122h9.726l-1.062 1.049c0-.866-.123-1.607-.37-2.223-.247-.616-.625-1.09-1.135-1.423-.494-.333-1.119-.5-1.876-.5-.757 0-1.399.175-1.926.525-.526.35-.929.857-1.209 1.523-.263.649-.395 1.432-.395 2.347 0 .849.132 1.607.395 2.273a3.417 3.417 0 0 0 1.209 1.548c.543.366 1.235.55 2.074.55.839 0 1.522-.167 2.049-.5.526-.35.864-.774 1.012-1.274h3.159a5.752 5.752 0 0 1-1.135 2.448 5.562 5.562 0 0 1-2.148 1.623c-.855.383-1.835.574-2.937.574ZM112.27 109.078v-13.56h2.715v5.818h-.247c0-1.381.181-2.53.543-3.446.362-.932.897-1.631 1.604-2.097.724-.467 1.621-.7 2.691-.7h.148c1.596 0 2.806.525 3.629 1.574.823 1.032 1.234 2.58 1.234 4.644v7.767h-3.431v-8.066c0-.833-.239-1.507-.716-2.023-.461-.516-1.103-.774-1.925-.774-.84 0-1.523.266-2.049.799-.51.516-.766 1.215-.766 2.098v7.966h-3.43ZM133.484 109.552c-1.168 0-2.18-.199-3.036-.599a6.417 6.417 0 0 1-2.123-1.598 6.87 6.87 0 0 1-1.259-2.248 7.961 7.961 0 0 1-.419-2.547v-.474c0-.916.14-1.79.419-2.623a6.662 6.662 0 0 1 1.308-2.247 6.142 6.142 0 0 1 2.123-1.573c.856-.4 1.843-.6 2.962-.6 1.169 0 2.214.233 3.135.7a5.45 5.45 0 0 1 2.197 1.898c.56.815.873 1.764.938 2.846h-3.332a2.723 2.723 0 0 0-.889-1.748c-.493-.466-1.176-.699-2.049-.699-.756 0-1.39.183-1.9.55-.494.366-.864.873-1.111 1.523-.247.632-.37 1.365-.37 2.197 0 .799.115 1.524.345 2.173.247.649.617 1.157 1.111 1.523.51.367 1.16.55 1.95.55.593 0 1.103-.109 1.531-.325a2.545 2.545 0 0 0 1.012-.899 2.97 2.97 0 0 0 .493-1.299h3.333c-.066 1.099-.387 2.065-.963 2.897-.56.816-1.308 1.457-2.246 1.923-.922.466-1.975.699-3.16.699ZM147.859 109.552c-1.152 0-2.164-.199-3.036-.599a6.357 6.357 0 0 1-2.148-1.598 7.557 7.557 0 0 1-1.283-2.273 7.935 7.935 0 0 1-.42-2.547v-.474c0-.899.14-1.765.42-2.598a6.879 6.879 0 0 1 1.283-2.247 6.142 6.142 0 0 1 2.123-1.573c.84-.4 1.811-.6 2.913-.6 1.448 0 2.658.325 3.629.974a5.95 5.95 0 0 1 2.221 2.523 7.65 7.65 0 0 1 .741 3.346v1.248h-11.873v-2.122h9.725l-1.061 1.049c0-.866-.123-1.607-.37-2.223-.247-.616-.626-1.09-1.136-1.423-.493-.333-1.119-.5-1.876-.5-.757 0-1.399.175-1.925.525-.527.35-.93.857-1.21 1.523-.263.649-.395 1.432-.395 2.347 0 .849.132 1.607.395 2.273a3.419 3.419 0 0 0 1.21 1.548c.543.366 1.234.55 2.073.55.84 0 1.522-.167 2.049-.5.527-.35.864-.774 1.012-1.274h3.16a5.766 5.766 0 0 1-1.136 2.448c-.559.699-1.275 1.24-2.147 1.623-.856.383-1.835.574-2.938.574ZM158.328 106.805V93.121h3.506v13.684h-3.506Zm-2.048 2.273v-2.772h7.602v2.772h-7.602Zm0-15.458v-2.772h7.602v2.772h-7.602ZM175.458 109.552c-1.629 0-3.045-.291-4.246-.874-1.185-.582-2.172-1.34-2.962-2.272a10.527 10.527 0 0 1-1.753-3.047c-.378-1.099-.567-2.156-.567-3.171v-.55c0-1.115.197-2.222.592-3.321a9.182 9.182 0 0 1 1.777-3.022c.807-.899 1.802-1.615 2.987-2.147 1.185-.55 2.576-.824 4.172-.824 1.58 0 2.962.274 4.147.824 1.185.532 2.172 1.248 2.962 2.147a8.981 8.981 0 0 1 1.802 3.022 9.756 9.756 0 0 1 .592 3.321v.55c0 1.015-.197 2.072-.592 3.171a9.823 9.823 0 0 1-1.753 3.047c-.773.932-1.76 1.69-2.962 2.272-1.184.583-2.584.874-4.196.874Zm0-3.296c.921 0 1.744-.166 2.468-.499a5.392 5.392 0 0 0 1.876-1.374 6.092 6.092 0 0 0 1.185-2.023c.28-.766.42-1.573.42-2.422 0-.916-.14-1.756-.42-2.522a5.527 5.527 0 0 0-1.185-1.998 5.272 5.272 0 0 0-1.876-1.324c-.74-.316-1.563-.474-2.468-.474-.922 0-1.753.158-2.493.474a5.526 5.526 0 0 0-1.901 1.324 6.053 6.053 0 0 0-1.185 1.998c-.263.766-.395 1.606-.395 2.522 0 .849.132 1.656.395 2.422.28.749.675 1.424 1.185 2.023a5.653 5.653 0 0 0 1.901 1.374c.74.333 1.571.499 2.493.499Z"/></svg>